<svg xmlns="http://www.w3.org/2000/svg" width="168" height="47" viewBox="0 0 168 47"><path fill="#FFF" fill-rule="evenodd" d="M58.752 16.503c-.31-6.595 5.324-9.639 11.733-9.639 7.96 0 12.096 5.124 12.096 10.298 0 2.334-1.087 5.024-3.206 6.595 3.723 1.928 5.273 4.77 5.273 8.776 0 6.29-4.653 11.161-14.111 11.161-7.96 0-13.077-4.21-13.077-12.225h8.218c0 2.79 2.171 4.564 4.859 4.564 3.153 0 4.704-2.028 4.704-4.057 0-1.98-1.551-4.008-4.704-4.008h-2.792v-7.407h2.689c2.325 0 3.515-1.675 3.515-3.196 0-1.979-1.604-3.196-3.464-3.196-1.706 0-3.41.863-3.41 2.334h-8.323zm28.192-.863V7.524h21.477v8.116h-6.137v27.394h-9.15V15.64h-6.19zm26.058 0V7.524h21.476v8.116h-6.138v27.394h-9.149V15.64h-6.19zm43.54-8.472l10.692 34.598v1.268h-9.666l-1.046-3.707-.332-.707h-10.612l-.06.128-1.21 4.286h-9.773v-1.268l10.693-34.598h8.339l-5.82 23.691h6.275l-1.977-8.048 3.843-15.643h.653zM46.334 19.028c0 .005-.003.008-.007.007l-4.799-2.178c-.003-.002-.007.001-.007.005 2.283 16.484-2.198 19.904-2.198 19.904H32.16s-2.553-3.314-2.47-3.394c2.223-1.616 1.135-4.46.411-5.374-4.117-5.204-6.711-5.89-8.569-4.591-2.292 1.604-1.656 4.05-.118 6.005 1.48 1.88 4.937 4.963 7.532 8.588 2.885 4.03 3.113 7.61 3.113 7.61a21.986 21.986 0 0 1-6.364.936 21.779 21.779 0 0 1-13.122-4.361L9.43 44.857a26.107 26.107 0 0 1-5.744-6.504v-.001l3.14-2.67a21.043 21.043 0 0 1-1.463-3.135l-4.108.58a25.454 25.454 0 0 1-.986-4.209 25.324 25.324 0 0 1-.262-4.31l4.116-.582a20.82 20.82 0 0 1 .498-3.41l-3.78-1.694a25.702 25.702 0 0 1 3.643-7.83L8.27 12.79a21.49 21.49 0 0 1 2.294-2.604L8.317 6.75a26.462 26.462 0 0 1 7.378-4.653l2.246 3.43c1.084-.41 2.209-.74 3.37-.975V.479A26.852 26.852 0 0 1 25.694.12c1.495 0 2.96.123 4.385.359v4.092a21.72 21.72 0 0 1 3.363.967l2.253-3.44a26.502 26.502 0 0 1 7.378 4.653l-2.257 3.448c2.517 2.425 4.443 5.44 5.518 8.83z"/></svg>