<?xml version="1.0" encoding="UTF-8"?>
<!DOCTYPE svg PUBLIC "-//W3C//DTD SVG 1.1//EN" "http://www.w3.org/Graphics/SVG/1.1/DTD/svg11.dtd">
<!-- Creator: CorelDRAW 2018 (64-Bit) -->
<svg xmlns="http://www.w3.org/2000/svg" xml:space="preserve" width="2906px" height="165px" version="1.1" style="shape-rendering:geometricPrecision; text-rendering:geometricPrecision; image-rendering:optimizeQuality; fill-rule:evenodd; clip-rule:evenodd"
viewBox="0 0 2906 165.38"
 xmlns:xlink="http://www.w3.org/1999/xlink">
 <defs>
  <style type="text/css">
   <![CDATA[
    .str1 {stroke:#2B2A29;stroke-width:0.9;stroke-miterlimit:22.9256}
    .str0 {stroke:black;stroke-width:0.9;stroke-miterlimit:22.9256}
    .fil2 {fill:none;fill-rule:nonzero}
    .fil0 {fill:#FEFEFE}
    .fil1 {fill:#FEFEFE;fill-rule:nonzero}
   ]]>
  </style>
 </defs>
 <g id="Слой_x0020_1">
  <metadata id="CorelCorpID_0Corel-Layer"/>
  <path id="logo.svg" class="fil0 str0" d="M194.69 60.65c-0.97,-20.61 16.64,-30.13 36.67,-30.13 24.88,0 37.8,16.02 37.8,32.19 0,7.29 -3.39,15.7 -10.02,20.61 11.64,6.03 16.48,14.91 16.48,27.43 0,19.66 -14.54,34.88 -44.1,34.88 -24.88,0 -40.87,-13.15 -40.87,-38.2l25.68 0c0,8.72 6.79,14.26 15.19,14.26 9.85,0 14.7,-6.34 14.7,-12.68 0,-6.19 -4.85,-12.53 -14.7,-12.53l-8.73 0 0 -23.15 8.41 0c7.27,0 10.98,-5.23 10.98,-9.99 0,-6.18 -5.01,-9.99 -10.82,-9.99 -5.33,0 -10.66,2.7 -10.66,7.3l-26.01 0zm88.11 -2.7l0 -25.37 67.13 0 0 25.37 -19.18 0 0 85.62 -28.6 0 0 -85.62 -19.35 0zm81.44 0l0 -25.37 67.13 0 0 25.37 -19.19 0 0 85.62 -28.59 0 0 -85.62 -19.35 0 0 0zm136.09 -26.48l33.42 108.14 0 3.96 -30.21 0 -3.27 -11.58 -1.04 -2.21 -33.17 0 -0.19 0.4 -3.78 13.39 -30.54 0 0 -3.96 33.42 -108.14 26.06 0 -18.19 74.05 19.61 0 -6.17 -25.16 12.01 -48.89 2.04 0 0 0zm-344.46 37.07c0,0.02 -0.01,0.03 -0.02,0.02l-15 -6.81c-0.01,0 -0.02,0.01 -0.02,0.02 7.13,51.52 -6.87,62.21 -6.87,62.21l-22.39 0c0,0 -7.98,-10.36 -7.72,-10.61 6.95,-5.05 3.55,-13.94 1.29,-16.79 -12.87,-16.27 -20.98,-18.41 -26.79,-14.35 -7.16,5.01 -5.17,12.66 -0.37,18.77 4.63,5.87 15.43,15.51 23.55,26.84 9.01,12.59 9.72,23.78 9.72,23.78 -6.41,1.93 -13.12,2.93 -19.83,2.93 -0.02,0 -0.03,0 -0.05,0 -0.04,0 -0.11,0 -0.15,0 -14.74,0 -29.08,-4.79 -40.86,-13.63l-9.83 8.35c-7.06,-5.72 -13.15,-12.61 -17.95,-20.34l0 0 9.81 -8.34c-1.78,-3.13 -3.33,-6.42 -4.57,-9.8l-12.84 1.82c-1.39,-4.29 -2.43,-8.71 -3.08,-13.16 -0.57,-3.81 -0.85,-7.67 -0.85,-11.52 0,-0.65 0.01,-1.31 0.02,-1.95l12.87 -1.82c0.23,-3.58 0.75,-7.16 1.56,-10.65l-11.81 -5.3c2.38,-8.72 6.25,-17.03 11.39,-24.47l11.82 5.3c2.16,-2.89 4.57,-5.63 7.17,-8.14l-7.02 -10.74c6.82,-6.08 14.63,-11.01 23.06,-14.54l7.02 10.72c3.39,-1.28 6.9,-2.31 10.53,-3.05l0 -12.73c4.51,-0.73 9.1,-1.12 13.68,-1.12 0,0 0.02,0 0.02,0 4.68,0 9.25,0.39 13.71,1.12l0 12.79c3.57,0.72 7.1,1.74 10.51,3.03l7.04 -10.76c8.43,3.53 16.25,8.47 23.06,14.55l-7.05 10.77c7.86,7.58 13.88,17.01 17.24,27.6l0 0z"/>
  <polygon class="fil1" points="675.67,145.51 675.67,29.14 704.41,29.14 721.75,108.67 738.87,29.14 767.82,29.14 767.82,145.51 749.95,145.51 749.95,53.73 730.96,145.51 712.56,145.51 693.55,53.73 693.55,145.51 "/>
  <path id="1" class="fil1" d="M794.99 88.03c0,-13.85 2.05,-25.25 6.14,-34.22 4.1,-8.96 9.46,-15.65 16.07,-20.04 6.61,-4.39 14.62,-6.58 24.02,-6.58 13.66,0 24.76,5.2 33.35,15.63 8.59,10.43 12.89,25.24 12.89,44.5 0,19.45 -4.55,34.67 -13.65,45.62 -7.96,9.67 -18.82,14.52 -32.5,14.52 -13.82,0 -24.71,-4.8 -32.67,-14.36 -9.1,-10.94 -13.65,-25.98 -13.65,-45.07zm19.82 -0.79c0,13.35 2.55,23.38 7.62,30.04 5.09,6.69 11.4,10.02 18.9,10.02 7.59,0 13.87,-3.3 18.83,-9.94 4.98,-6.61 7.48,-16.79 7.48,-30.52 0,-13.44 -2.42,-23.41 -7.26,-29.83 -4.85,-6.45 -11.19,-9.67 -19.05,-9.67 -7.83,0 -14.19,3.25 -19.12,9.73 -4.93,6.5 -7.4,16.55 -7.4,30.17z"/>
  <polygon id="2" class="fil1" points="914.46,145.51 914.46,29.14 933.64,29.14 933.64,74.97 971.51,74.97 971.51,29.14 990.69,29.14 990.69,145.51 971.51,145.51 971.51,94.64 933.64,94.64 933.64,145.51 "/>
  <polygon id="3" class="fil1" points="1022.51,145.51 1022.51,29.14 1040.88,29.14 1040.88,106.69 1079.29,29.14 1098.73,29.14 1098.73,145.51 1080.37,145.51 1080.37,69.63 1042.07,145.51 "/>
  <polygon id="4" class="fil1" points="1151.69,145.51 1151.69,48.8 1123.41,48.8 1123.41,29.14 1199.14,29.14 1199.14,48.8 1170.86,48.8 1170.86,145.51 "/>
  <path id="5" class="fil1" d="M1219.62 88.03c0,-13.85 2.05,-25.25 6.14,-34.22 4.09,-8.96 9.46,-15.65 16.07,-20.04 6.61,-4.39 14.62,-6.58 24.02,-6.58 13.66,0 24.76,5.2 33.35,15.63 8.59,10.43 12.89,25.24 12.89,44.5 0,19.45 -4.55,34.67 -13.65,45.62 -7.96,9.67 -18.83,14.52 -32.5,14.52 -13.82,0 -24.71,-4.8 -32.67,-14.36 -9.1,-10.94 -13.65,-25.98 -13.65,-45.07zm19.82 -0.79c0,13.35 2.55,23.38 7.62,30.04 5.09,6.69 11.4,10.02 18.9,10.02 7.59,0 13.87,-3.3 18.83,-9.94 4.98,-6.61 7.48,-16.79 7.48,-30.52 0,-13.44 -2.42,-23.41 -7.27,-29.83 -4.84,-6.45 -11.18,-9.67 -19.04,-9.67 -7.83,0 -14.19,3.25 -19.12,9.73 -4.93,6.5 -7.4,16.55 -7.4,30.17z"/>
  <path id="6" class="fil1" d="M1339.09 145.51l0 -116.37 30.96 0c11.54,0 19.1,0.57 22.65,1.68 5.66,1.79 10.32,5.63 14,11.51 3.69,5.85 5.53,13.43 5.53,22.7 0,8.4 -1.6,15.47 -4.77,21.15 -3.17,5.69 -7.15,9.67 -11.92,11.98 -4.76,2.3 -12.97,3.46 -24.62,3.46l-12.65 0 0 43.89 -19.18 0zm19.18 -96.71l0 33.16 10.7 0c7.15,0 12.05,-0.52 14.63,-1.52 2.57,-1 4.68,-2.82 6.34,-5.44 1.65,-2.66 2.46,-5.88 2.46,-9.7 0,-3.87 -0.84,-7.15 -2.54,-9.81 -1.71,-2.65 -3.82,-4.44 -6.32,-5.33 -2.49,-0.9 -7.77,-1.36 -15.87,-1.36l-9.4 0z"/>
  <polygon id="7" class="fil1" points="1439.83,145.51 1439.83,29.14 1458.19,29.14 1458.19,106.69 1496.6,29.14 1516.05,29.14 1516.05,145.51 1497.69,145.51 1497.69,69.63 1459.38,145.51 "/>
  <polygon id="8" class="fil1" points="1547.55,145.51 1547.55,29.14 1566.73,29.14 1566.73,74.97 1604.6,74.97 1604.6,29.14 1623.77,29.14 1623.77,145.51 1604.6,145.51 1604.6,94.64 1566.73,94.64 1566.73,145.51 "/>
  <polygon id="9" class="fil1" points="1655.92,145.51 1655.92,30.11 1723.04,30.11 1723.04,49.78 1675.1,49.78 1675.1,145.51 "/>
  <path id="10" class="fil1" d="M1813.01 97.24l0 -19.67 29.74 0c-0.94,-9.67 -3.46,-17.15 -7.58,-22.37 -4.12,-5.23 -9.32,-7.86 -15.58,-7.86 -10.24,0 -17.01,6.39 -20.39,19.18l-19.02 -5.23c2.17,-11 6.64,-19.42 13.44,-25.3 6.77,-5.88 15.22,-8.8 25.32,-8.8 13.41,0 24.11,5.47 32.13,16.39 7.99,10.91 12,25.7 12,44.37 0,18.04 -3.93,32.47 -11.76,43.28 -7.83,10.81 -18.25,16.23 -31.26,16.23 -21.69,0 -35.02,-12.44 -40.03,-37.33l19.34 -7.37c0.95,7.91 3.33,13.98 7.12,18.21 3.82,4.22 8.56,6.33 14.22,6.33 12.55,0 19.91,-10.02 22.05,-30.06l-29.74 0z"/>
  <path id="11" class="fil1" d="M1944.98 145.51l0 -96.71 -28.61 0 0 49.76c0,12.95 -0.38,22.54 -1.14,28.74 -0.78,6.23 -2.65,10.95 -5.63,14.17 -3.01,3.22 -7.86,4.85 -14.57,4.85 -1.95,0 -5.99,-0.27 -12.14,-0.79l0 -18.39 4.2 0c4.14,0 6.85,-0.68 8.15,-2.03 1.3,-1.35 1.95,-4.69 1.95,-10.02l0 -85.95 66.96 0 0 116.37 -19.17 0z"/>
  <polygon id="12" class="fil1" points="1996.03,145.51 1996.03,29.14 2066.73,29.14 2066.73,48.8 2015.21,48.8 2015.21,74.48 2063.15,74.48 2063.15,94.15 2015.21,94.15 2015.21,125.84 2068.52,125.84 2068.52,145.51 "/>
  <path id="13" class="fil1" d="M2097.09 145.51l0 -116.37 19.18 0 0 49.57c4.3,-0.54 7.28,-1.98 8.94,-4.34 1.65,-2.35 3.82,-8.01 6.52,-17.01 2.69,-8.99 5.5,-15.55 8.4,-19.64 2.93,-4.09 6.01,-6.6 9.29,-7.5 3.28,-0.89 8.91,-1.52 16.91,-1.89l0 17.39 -2.69 0c-5.39,0 -9.02,1.27 -10.94,3.81 -1.9,2.55 -3.9,7.4 -6.01,14.61 -2.09,7.17 -3.88,11.94 -5.31,14.3 -1.47,2.35 -3.82,4.71 -7.04,7.01 4.22,1.76 7.66,4.61 10.32,8.54 2.65,3.92 5.87,10.48 9.64,19.69l13 31.83 -22.54 0 -11.56 -30.07c-2.93,-7.69 -5.42,-13.03 -7.53,-16.09 -2.09,-3.04 -5.23,-4.61 -9.4,-4.71l0 50.87 -19.18 0z"/>
  <polygon id="14" class="fil1" points="2211.5,145.51 2211.5,48.8 2183.22,48.8 2183.22,29.14 2258.96,29.14 2258.96,48.8 2230.68,48.8 2230.68,145.51 "/>
  <path id="15" class="fil1" d="M2283.33 145.51l0 -116.37 30.96 0c11.54,0 19.1,0.57 22.65,1.68 5.66,1.79 10.32,5.63 14,11.51 3.69,5.85 5.53,13.43 5.53,22.7 0,8.4 -1.6,15.47 -4.77,21.15 -3.17,5.69 -7.15,9.67 -11.92,11.98 -4.77,2.3 -12.97,3.46 -24.62,3.46l-12.65 0 0 43.89 -19.18 0zm19.18 -96.71l0 33.16 10.7 0c7.15,0 12.05,-0.52 14.63,-1.52 2.57,-1 4.68,-2.82 6.34,-5.44 1.65,-2.66 2.46,-5.88 2.46,-9.7 0,-3.87 -0.84,-7.15 -2.55,-9.81 -1.7,-2.65 -3.81,-4.44 -6.31,-5.33 -2.49,-0.9 -7.77,-1.36 -15.87,-1.36l-9.4 0z"/>
  <path id="16" class="fil1" d="M2380.16 88.03c0,-13.85 2.06,-25.25 6.15,-34.22 4.09,-8.96 9.46,-15.65 16.07,-20.04 6.61,-4.39 14.62,-6.58 24.02,-6.58 13.65,0 24.76,5.2 33.35,15.63 8.59,10.43 12.89,25.24 12.89,44.5 0,19.45 -4.55,34.67 -13.65,45.62 -7.96,9.67 -18.83,14.52 -32.51,14.52 -13.81,0 -24.7,-4.8 -32.66,-14.36 -9.11,-10.94 -13.66,-25.98 -13.66,-45.07zm19.83 -0.79c0,13.35 2.55,23.38 7.61,30.04 5.1,6.69 11.41,10.02 18.91,10.02 7.59,0 13.87,-3.3 18.83,-9.94 4.98,-6.61 7.47,-16.79 7.47,-30.52 0,-13.44 -2.41,-23.41 -7.26,-29.83 -4.84,-6.45 -11.18,-9.67 -19.04,-9.67 -7.83,0 -14.19,3.25 -19.12,9.73 -4.93,6.5 -7.4,16.55 -7.4,30.17z"/>
  <path id="17" class="fil1" d="M2560.59 102.6l18.69 7.15c-2.9,13.08 -7.75,22.62 -14.52,28.66 -6.77,6.04 -15.09,9.05 -24.97,9.05 -12.44,0 -22.51,-4.8 -30.23,-14.36 -8.89,-11.05 -13.33,-25.98 -13.33,-44.75 0,-19.83 4.47,-35.35 13.41,-46.56 7.8,-9.73 18.25,-14.6 31.37,-14.6 10.69,0 19.63,3.65 26.84,10.97 5.12,5.2 8.88,12.92 11.27,23.16l-19.02 5.52c-1.22,-6.28 -3.66,-11.1 -7.28,-14.46 -3.63,-3.36 -7.91,-5.04 -12.84,-5.04 -7.05,0 -12.79,3.06 -17.23,9.18 -4.47,6.13 -6.69,16.23 -6.69,30.32 0,14.62 2.16,25.02 6.5,31.2 4.33,6.18 9.94,9.26 16.87,9.26 5.07,0 9.46,-1.97 13.17,-5.9 3.68,-3.96 6.36,-10.21 7.99,-18.8z"/>
  <polygon id="18" class="fil1" points="2607.69,145.51 2607.69,29.14 2678.39,29.14 2678.39,48.8 2626.87,48.8 2626.87,74.48 2674.81,74.48 2674.81,94.15 2626.87,94.15 2626.87,125.84 2680.18,125.84 2680.18,145.51 "/>
  <polygon id="19" class="fil1" points="2729.88,145.51 2729.88,48.8 2701.59,48.8 2701.59,29.14 2777.33,29.14 2777.33,48.8 2749.05,48.8 2749.05,145.51 "/>
  <polygon id="20" class="fil1" points="2801.71,145.51 2801.71,29.14 2820.07,29.14 2820.07,106.69 2858.48,29.14 2877.93,29.14 2877.93,145.51 2859.57,145.51 2859.57,69.63 2821.26,145.51 "/>
  <polygon id="21" class="fil2 str1" points="675.67,145.51 675.67,29.14 704.41,29.14 721.75,108.67 738.87,29.14 767.82,29.14 767.82,145.51 749.95,145.51 749.95,53.73 730.96,145.51 712.56,145.51 693.55,53.73 693.55,145.51 "/>
  <path id="22" class="fil2 str1" d="M794.99 88.03c0,-13.85 2.05,-25.25 6.14,-34.22 4.1,-8.96 9.46,-15.65 16.07,-20.04 6.61,-4.39 14.62,-6.58 24.02,-6.58 13.66,0 24.76,5.2 33.35,15.63 8.59,10.43 12.89,25.24 12.89,44.5 0,19.45 -4.55,34.67 -13.65,45.62 -7.96,9.67 -18.82,14.52 -32.5,14.52 -13.82,0 -24.71,-4.8 -32.67,-14.36 -9.1,-10.94 -13.65,-25.98 -13.65,-45.07zm19.82 -0.79c0,13.35 2.55,23.38 7.62,30.04 5.09,6.69 11.4,10.02 18.9,10.02 7.59,0 13.87,-3.3 18.83,-9.94 4.98,-6.61 7.48,-16.79 7.48,-30.52 0,-13.44 -2.42,-23.41 -7.26,-29.83 -4.85,-6.45 -11.19,-9.67 -19.05,-9.67 -7.83,0 -14.19,3.25 -19.12,9.73 -4.93,6.5 -7.4,16.55 -7.4,30.17z"/>
  <polygon id="23" class="fil2 str1" points="914.46,145.51 914.46,29.14 933.64,29.14 933.64,74.97 971.51,74.97 971.51,29.14 990.69,29.14 990.69,145.51 971.51,145.51 971.51,94.64 933.64,94.64 933.64,145.51 "/>
  <polygon id="24" class="fil2 str1" points="1022.51,145.51 1022.51,29.14 1040.88,29.14 1040.88,106.69 1079.29,29.14 1098.73,29.14 1098.73,145.51 1080.37,145.51 1080.37,69.63 1042.07,145.51 "/>
  <polygon id="25" class="fil2 str1" points="1151.69,145.51 1151.69,48.8 1123.41,48.8 1123.41,29.14 1199.14,29.14 1199.14,48.8 1170.86,48.8 1170.86,145.51 "/>
  <path id="26" class="fil2 str1" d="M1219.62 88.03c0,-13.85 2.05,-25.25 6.14,-34.22 4.09,-8.96 9.46,-15.65 16.07,-20.04 6.61,-4.39 14.62,-6.58 24.02,-6.58 13.66,0 24.76,5.2 33.35,15.63 8.59,10.43 12.89,25.24 12.89,44.5 0,19.45 -4.55,34.67 -13.65,45.62 -7.96,9.67 -18.83,14.52 -32.5,14.52 -13.82,0 -24.71,-4.8 -32.67,-14.36 -9.1,-10.94 -13.65,-25.98 -13.65,-45.07zm19.82 -0.79c0,13.35 2.55,23.38 7.62,30.04 5.09,6.69 11.4,10.02 18.9,10.02 7.59,0 13.87,-3.3 18.83,-9.94 4.98,-6.61 7.48,-16.79 7.48,-30.52 0,-13.44 -2.42,-23.41 -7.27,-29.83 -4.84,-6.45 -11.18,-9.67 -19.04,-9.67 -7.83,0 -14.19,3.25 -19.12,9.73 -4.93,6.5 -7.4,16.55 -7.4,30.17z"/>
  <path id="27" class="fil2 str1" d="M1339.09 145.51l0 -116.37 30.96 0c11.54,0 19.1,0.57 22.65,1.68 5.66,1.79 10.32,5.63 14,11.51 3.69,5.85 5.53,13.43 5.53,22.7 0,8.4 -1.6,15.47 -4.77,21.15 -3.17,5.69 -7.15,9.67 -11.92,11.98 -4.76,2.3 -12.97,3.46 -24.62,3.46l-12.65 0 0 43.89 -19.18 0zm19.18 -96.71l0 33.16 10.7 0c7.15,0 12.05,-0.52 14.63,-1.52 2.57,-1 4.68,-2.82 6.34,-5.44 1.65,-2.66 2.46,-5.88 2.46,-9.7 0,-3.87 -0.84,-7.15 -2.54,-9.81 -1.71,-2.65 -3.82,-4.44 -6.32,-5.33 -2.49,-0.9 -7.77,-1.36 -15.87,-1.36l-9.4 0z"/>
  <polygon id="28" class="fil2 str1" points="1439.83,145.51 1439.83,29.14 1458.19,29.14 1458.19,106.69 1496.6,29.14 1516.05,29.14 1516.05,145.51 1497.69,145.51 1497.69,69.63 1459.38,145.51 "/>
  <polygon id="29" class="fil2 str1" points="1547.55,145.51 1547.55,29.14 1566.73,29.14 1566.73,74.97 1604.6,74.97 1604.6,29.14 1623.77,29.14 1623.77,145.51 1604.6,145.51 1604.6,94.64 1566.73,94.64 1566.73,145.51 "/>
  <polygon id="30" class="fil2 str1" points="1655.92,145.51 1655.92,30.11 1723.04,30.11 1723.04,49.78 1675.1,49.78 1675.1,145.51 "/>
  <path id="31" class="fil2 str1" d="M1813.01 97.24l0 -19.67 29.74 0c-0.94,-9.67 -3.46,-17.15 -7.58,-22.37 -4.12,-5.23 -9.32,-7.86 -15.58,-7.86 -10.24,0 -17.01,6.39 -20.39,19.18l-19.02 -5.23c2.17,-11 6.64,-19.42 13.44,-25.3 6.77,-5.88 15.22,-8.8 25.32,-8.8 13.41,0 24.11,5.47 32.13,16.39 7.99,10.91 12,25.7 12,44.37 0,18.04 -3.93,32.47 -11.76,43.28 -7.83,10.81 -18.25,16.23 -31.26,16.23 -21.69,0 -35.02,-12.44 -40.03,-37.33l19.34 -7.37c0.95,7.91 3.33,13.98 7.12,18.21 3.82,4.22 8.56,6.33 14.22,6.33 12.55,0 19.91,-10.02 22.05,-30.06l-29.74 0z"/>
  <path id="32" class="fil2 str1" d="M1944.98 145.51l0 -96.71 -28.61 0 0 49.76c0,12.95 -0.38,22.54 -1.14,28.74 -0.78,6.23 -2.65,10.95 -5.63,14.17 -3.01,3.22 -7.86,4.85 -14.57,4.85 -1.95,0 -5.99,-0.27 -12.14,-0.79l0 -18.39 4.2 0c4.14,0 6.85,-0.68 8.15,-2.03 1.3,-1.35 1.95,-4.69 1.95,-10.02l0 -85.95 66.96 0 0 116.37 -19.17 0z"/>
  <polygon id="33" class="fil2 str1" points="1996.03,145.51 1996.03,29.14 2066.73,29.14 2066.73,48.8 2015.21,48.8 2015.21,74.48 2063.15,74.48 2063.15,94.15 2015.21,94.15 2015.21,125.84 2068.52,125.84 2068.52,145.51 "/>
  <path id="34" class="fil2 str1" d="M2097.09 145.51l0 -116.37 19.18 0 0 49.57c4.3,-0.54 7.28,-1.98 8.94,-4.34 1.65,-2.35 3.82,-8.01 6.52,-17.01 2.69,-8.99 5.5,-15.55 8.4,-19.64 2.93,-4.09 6.01,-6.6 9.29,-7.5 3.28,-0.89 8.91,-1.52 16.91,-1.89l0 17.39 -2.69 0c-5.39,0 -9.02,1.27 -10.94,3.81 -1.9,2.55 -3.9,7.4 -6.01,14.61 -2.09,7.17 -3.88,11.94 -5.31,14.3 -1.47,2.35 -3.82,4.71 -7.04,7.01 4.22,1.76 7.66,4.61 10.32,8.54 2.65,3.92 5.87,10.48 9.64,19.69l13 31.83 -22.54 0 -11.56 -30.07c-2.93,-7.69 -5.42,-13.03 -7.53,-16.09 -2.09,-3.04 -5.23,-4.61 -9.4,-4.71l0 50.87 -19.18 0z"/>
  <polygon id="35" class="fil2 str1" points="2211.5,145.51 2211.5,48.8 2183.22,48.8 2183.22,29.14 2258.96,29.14 2258.96,48.8 2230.68,48.8 2230.68,145.51 "/>
  <path id="36" class="fil2 str1" d="M2283.33 145.51l0 -116.37 30.96 0c11.54,0 19.1,0.57 22.65,1.68 5.66,1.79 10.32,5.63 14,11.51 3.69,5.85 5.53,13.43 5.53,22.7 0,8.4 -1.6,15.47 -4.77,21.15 -3.17,5.69 -7.15,9.67 -11.92,11.98 -4.77,2.3 -12.97,3.46 -24.62,3.46l-12.65 0 0 43.89 -19.18 0zm19.18 -96.71l0 33.16 10.7 0c7.15,0 12.05,-0.52 14.63,-1.52 2.57,-1 4.68,-2.82 6.34,-5.44 1.65,-2.66 2.46,-5.88 2.46,-9.7 0,-3.87 -0.84,-7.15 -2.55,-9.81 -1.7,-2.65 -3.81,-4.44 -6.31,-5.33 -2.49,-0.9 -7.77,-1.36 -15.87,-1.36l-9.4 0z"/>
  <path id="37" class="fil2 str1" d="M2380.16 88.03c0,-13.85 2.06,-25.25 6.15,-34.22 4.09,-8.96 9.46,-15.65 16.07,-20.04 6.61,-4.39 14.62,-6.58 24.02,-6.58 13.65,0 24.76,5.2 33.35,15.63 8.59,10.43 12.89,25.24 12.89,44.5 0,19.45 -4.55,34.67 -13.65,45.62 -7.96,9.67 -18.83,14.52 -32.51,14.52 -13.81,0 -24.7,-4.8 -32.66,-14.36 -9.11,-10.94 -13.66,-25.98 -13.66,-45.07zm19.83 -0.79c0,13.35 2.55,23.38 7.61,30.04 5.1,6.69 11.41,10.02 18.91,10.02 7.59,0 13.87,-3.3 18.83,-9.94 4.98,-6.61 7.47,-16.79 7.47,-30.52 0,-13.44 -2.41,-23.41 -7.26,-29.83 -4.84,-6.45 -11.18,-9.67 -19.04,-9.67 -7.83,0 -14.19,3.25 -19.12,9.73 -4.93,6.5 -7.4,16.55 -7.4,30.17z"/>
  <path id="38" class="fil2 str1" d="M2560.59 102.6l18.69 7.15c-2.9,13.08 -7.75,22.62 -14.52,28.66 -6.77,6.04 -15.09,9.05 -24.97,9.05 -12.44,0 -22.51,-4.8 -30.23,-14.36 -8.89,-11.05 -13.33,-25.98 -13.33,-44.75 0,-19.83 4.47,-35.35 13.41,-46.56 7.8,-9.73 18.25,-14.6 31.37,-14.6 10.69,0 19.63,3.65 26.84,10.97 5.12,5.2 8.88,12.92 11.27,23.16l-19.02 5.52c-1.22,-6.28 -3.66,-11.1 -7.28,-14.46 -3.63,-3.36 -7.91,-5.04 -12.84,-5.04 -7.05,0 -12.79,3.06 -17.23,9.18 -4.47,6.13 -6.69,16.23 -6.69,30.32 0,14.62 2.16,25.02 6.5,31.2 4.33,6.18 9.94,9.26 16.87,9.26 5.07,0 9.46,-1.97 13.17,-5.9 3.68,-3.96 6.36,-10.21 7.99,-18.8z"/>
  <polygon id="39" class="fil2 str1" points="2607.69,145.51 2607.69,29.14 2678.39,29.14 2678.39,48.8 2626.87,48.8 2626.87,74.48 2674.81,74.48 2674.81,94.15 2626.87,94.15 2626.87,125.84 2680.18,125.84 2680.18,145.51 "/>
  <polygon id="40" class="fil2 str1" points="2729.88,145.51 2729.88,48.8 2701.59,48.8 2701.59,29.14 2777.33,29.14 2777.33,48.8 2749.05,48.8 2749.05,145.51 "/>
  <polygon id="41" class="fil2 str1" points="2801.71,145.51 2801.71,29.14 2820.07,29.14 2820.07,106.69 2858.48,29.14 2877.93,29.14 2877.93,145.51 2859.57,145.51 2859.57,69.63 2821.26,145.51 "/>
 </g>
</svg>
